<svg width="1440" height="900" viewBox="0 0 1440 900" fill="none" xmlns="http://www.w3.org/2000/svg">
  <g opacity="0.5">
    <path d="M1440 0H0V900H1440V0Z" fill="url(#paint0_linear_1_2)"/>
    <path d="M1440 0H0V900H1440V0Z" fill="url(#paint1_radial_1_2)"/>
    <g opacity="0.4" filter="url(#filter0_f_1_2)">
      <path d="M1095.5 190C1095.5 246.885 1049.39 293 992.5 293C935.615 293 889.5 246.885 889.5 190C889.5 133.115 935.615 87 992.5 87C1049.39 87 1095.5 133.115 1095.5 190Z" fill="#0E6BA8"/>
    </g>
    <g opacity="0.4" filter="url(#filter1_f_1_2)">
      <path d="M550.5 790C550.5 846.885 504.385 893 447.5 893C390.615 893 344.5 846.885 344.5 790C344.5 733.115 390.615 687 447.5 687C504.385 687 550.5 733.115 550.5 790Z" fill="#0E6BA8"/>
    </g>
  </g>
  <defs>
    <filter id="filter0_f_1_2" x="789.5" y="-13" width="406" height="406" filterUnits="userSpaceOnUse" color-interpolation-filters="sRGB">
      <feFlood flood-opacity="0" result="BackgroundImageFix"/>
      <feBlend mode="normal" in="SourceGraphic" in2="BackgroundImageFix" result="shape"/>
      <feGaussianBlur stdDeviation="50" result="effect1_foregroundBlur_1_2"/>
    </filter>
    <filter id="filter1_f_1_2" x="244.5" y="587" width="406" height="406" filterUnits="userSpaceOnUse" color-interpolation-filters="sRGB">
      <feFlood flood-opacity="0" result="BackgroundImageFix"/>
      <feBlend mode="normal" in="SourceGraphic" in2="BackgroundImageFix" result="shape"/>
      <feGaussianBlur stdDeviation="50" result="effect1_foregroundBlur_1_2"/>
    </filter>
    <linearGradient id="paint0_linear_1_2" x1="720" y1="0" x2="720" y2="900" gradientUnits="userSpaceOnUse">
      <stop stop-color="#001A57"/>
      <stop offset="1" stop-color="#0A2472"/>
    </linearGradient>
    <radialGradient id="paint1_radial_1_2" cx="0" cy="0" r="1" gradientUnits="userSpaceOnUse" gradientTransform="translate(720 450) rotate(90) scale(450 720)">
      <stop stop-color="#0E6BA8" stop-opacity="0.2"/>
      <stop offset="1" stop-color="#001A57" stop-opacity="0"/>
    </radialGradient>
  </defs>
</svg>
